<svg xmlns="http://www.w3.org/2000/svg" viewBox="0 0 320 320">
  <g id="cross" fill="none" stroke="currentColor" stroke-width="7" stroke-linejoin="round" stroke-linecap="butt">
    <path d="M 165.33 154.67 Q 170 81.34 188.09 8 L 131.91 8 Q 150 81.34 154.67 154.67 Q 81.34 150 8 131.91 L 8 188.09 Q 81.34 170 154.67 165.33 Q 150 238.66 131.91 312 L 188.09 312 Q 170 238.66 165.33 165.33 Q 238.66 170 312 188.09 L 312 131.91 Q 238.66 150 165.33 154.67 Z"/>
    <path d="M 183.72 26.59 A 135.5 135.5 0 0 1 293.41 136.28"/>
    <path d="M 293.41 183.72 A 135.5 135.5 0 0 1 183.72 293.41"/>
    <path d="M 136.28 293.41 A 135.5 135.5 0 0 1 26.59 183.72"/>
    <path d="M 26.59 136.28 A 135.5 135.5 0 0 1 136.28 26.59"/>
    <path d="M 185.73 17.81 A 144.5 144.5 0 0 1 302.19 134.27"/>
    <path d="M 302.19 185.73 A 144.5 144.5 0 0 1 185.73 302.19"/>
    <path d="M 134.27 302.19 A 144.5 144.5 0 0 1 17.81 185.73"/>
    <path d="M 17.81 134.27 A 144.5 144.5 0 0 1 134.27 17.81"/>
  </g>
</svg>
