<svg xmlns="http://www.w3.org/2000/svg" viewBox="0 0 545.33331 540">
  <path id="cross" d="m 252.40446,523.86984 c -20.40048,-2.37591 -22.41252,-2.96944 -22.32478,-6.58553 0.0438,-1.80637 0.51374,-4.56965 1.04424,-6.14062 0.89286,-2.64399 0.20821,-3.02459 -9.21021,-5.11999 C 187.94012,498.46529 149.4317,479.55385 121.29047,456.60773 101.31669,440.32129 78.519862,414.20844 65.337992,392.51642 53.307899,372.71975 41.35678,343.20828 37.186266,323 c -0.945892,-4.58333 -2.1044,-8.33333 -2.574461,-8.33333 -0.470062,0 -3.752444,0.8721 -7.294184,1.93801 -6.069167,1.82655 -9.383104,1.67863 -8.143243,-0.36348 0.303165,-0.49933 -0.260862,-8.10787 -1.253394,-16.90787 -2.854221,-25.30613 -1.802931,-60.23758 2.175716,-72.293 1.284328,-3.89155 1.835164,-4.26981 5.006534,-3.43798 9.324815,2.44585 9.854125,2.0151 11.799384,-9.60235 4.55065,-27.17733 21.43386,-65.82069 39.029561,-89.33333 C 109.17558,80.244442 158.05632,49.907497 217.79699,36.620847 l 10.46366,-2.327176 -0.86752,-6.943385 -0.86752,-6.943384 12.40386,-1.870118 c 16.27836,-2.454272 66.65266,-2.190675 77.07052,0.403293 7.94709,1.978766 8.37251,2.820337 6.34063,12.543137 l -0.86725,4.149881 11.46085,3.027639 c 29.21158,7.716888 58.74356,22.527064 83.74054,41.995559 13.4975,10.512308 37.69627,35.683827 47.54127,49.452347 16.87308,23.59747 32.72441,57.34918 38.67716,82.35396 l 3.10197,13.02994 6.28083,-0.86383 c 5.82266,-0.80083 6.33089,-0.63642 6.96695,2.25372 4.18861,19.03219 5.53433,45.72169 3.52555,69.92143 -1.63276,19.66966 -2.93755,26.65616 -4.91968,26.34226 -0.65019,-0.10296 -3.04834,-0.58223 -5.32923,-1.06503 l -4.14706,-0.87782 -1.61097,8.39837 c -2.35299,12.26669 -10.26624,34.66276 -17.03544,48.21368 -19.59607,39.22837 -51.00629,73.70535 -89.05946,97.75485 -23.05811,14.57267 -44.95463,23.66258 -74.92669,31.10436 l -5.59337,1.38878 1.88808,6.27363 c 1.03845,3.45049 1.45547,6.67511 0.9267,7.16582 -3.25989,3.02528 -51.11902,4.63089 -70.55691,2.36708 z m 63.79897,-6.20662 c 1.10802,-1.10802 -0.28141,-8.19709 -5.34035,-27.24712 C 298.01562,442.03751 288.27529,393.65831 283.39801,354 c -3.89627,-31.68145 -5.90413,-72.86704 -3.71094,-76.11926 0.70439,-1.04452 7.1601,-0.96829 22.97959,0.27133 55.26533,4.33063 83.39089,9.43854 186.66666,33.90075 12.83333,3.03974 23.8653,5.62139 24.51549,5.73699 3.7405,0.66506 6.52073,-34.15222 4.77434,-59.78981 -1.78093,-26.14471 -2.48965,-30.20755 -5.13645,-29.44543 -1.18436,0.34102 -4.85339,1.26517 -8.15339,2.05365 -3.3,0.78848 -8.1,2.01409 -10.66666,2.72357 -35.82454,9.90266 -127.7289,24.0997 -181.33333,28.01171 -9.9,0.72249 -21.52825,1.70779 -25.84055,2.18954 l -7.84056,0.87593 0.88767,-13.20449 C 284.62316,190.46399 291.96171,146.65917 310.89675,70 c 4.04105,-16.360309 7.61554,-33.614008 8.71691,-42.075552 l 0.61726,-4.742218 -15.26426,-1.591115 c -25.50944,-2.659051 -69.88244,-1.164474 -73.55742,2.47757 -0.78676,0.779708 0.0596,7.363272 2.26105,17.588732 1.93516,8.98842 5.09187,25.042583 7.01492,35.675916 1.92304,10.633334 4.34064,23.533337 5.37244,28.666667 8.84236,43.99181 21.66798,141.16587 20.35608,154.22897 l -0.41374,4.11972 -15.33333,-0.22673 C 207.53495,263.48417 89.132386,245.10014 35.496589,230.7131 c -5.776875,-1.54957 -10.675024,-2.64393 -10.884776,-2.43191 -0.209751,0.21201 -1.053538,5.18548 -1.875082,11.05214 -2.576659,18.39999 -1.370028,69.14448 1.717574,72.23209 0.371809,0.37181 13.171693,-2.04804 28.444187,-5.37743 41.09982,-8.95973 64.487558,-13.50787 96.434838,-18.75335 44.42913,-7.29491 90.00092,-12.06707 107.14425,-11.21987 l 9.14426,0.4519 -0.20975,19.2662 c -0.50209,46.1193 -14.42173,150.54425 -27.53976,206.60281 -1.78498,7.62795 -3.07495,14.03949 -2.86658,14.24785 3.05328,3.05328 78.20985,3.86752 81.19768,0.87969 z m -82.25598,-17.99655 c 11.46264,-51.71634 25.21962,-153.06748 26.99134,-198.85199 l 0.8198,-21.18532 -15.21263,0.91728 c -30.25405,1.82422 -72.68809,6.80032 -96.54597,11.32162 -3.66666,0.69487 -10.26666,1.67557 -14.66666,2.17932 -4.4,0.50376 -8.51329,1.22367 -9.14065,1.59979 -0.62735,0.37612 -6.02735,1.44255 -12,2.36985 -5.97264,0.92729 -21.05935,3.89421 -33.526016,6.59315 -12.466667,2.69894 -26.476511,5.72556 -31.132987,6.72583 -4.656477,1.00026 -8.743849,2.09619 -9.08305,2.43539 -0.339201,0.3392 0.6069,5.76887 2.102447,12.06592 18.582123,78.24069 82.971296,146.00906 162.113586,170.62143 22.7827,7.08517 28.28771,7.68825 29.28079,3.20773 z M 203.66246,487.9969 C 131.44022,463.85469 74.470657,405.5568 53.958124,334.802 c -4.193248,-14.46396 -4.165626,-15.67748 0.375207,-16.4836 2.016667,-0.35801 8.166667,-1.66218 13.666666,-2.89815 20.852447,-4.68601 74.667853,-15.34361 90.666663,-17.95563 30.35378,-4.95565 94.14908,-10.76593 97.23904,-8.85623 1.51301,0.93509 1.63106,-0.41128 -3.86304,44.05828 -2.17444,17.6 -4.59806,39.66804 -5.38584,49.0401 -2.06992,24.6256 -7.9626,56.00584 -18.27004,97.29323 -3.10864,12.45197 -3.93766,14.3269 -6.31589,14.28432 -1.50566,-0.0269 -9.78945,-2.40629 -18.40843,-5.28742 z m 18.16559,-2.33023 c 1.57184,-5.4382 8.87054,-36.88719 11.99083,-51.66667 4.23556,-20.06208 6.95431,-38.13577 8.82498,-58.66667 0.80181,-8.8 2.90746,-27.1 4.67921,-40.66666 1.77176,-13.56667 3.6159,-28.68982 4.09809,-33.60701 l 0.87671,-8.94034 -4.48227,0.57626 c -2.46525,0.31694 -12.58228,1.20962 -22.48228,1.98373 -48.10848,3.76173 -83.65405,9.43843 -150.266834,23.99789 -10.038973,2.19421 -18.435785,3.98947 -18.659583,3.98947 -1.314493,0 0.244933,6.48701 4.846927,20.16258 21.978278,65.31203 74.03498,116.61849 142.0795,140.03185 16.9341,5.82684 17.59258,5.92673 18.49472,2.80557 z m 113.02597,13.74606 c 62.36686,-16.26196 118.80597,-61.99354 149.01735,-120.74606 6.20002,-12.05727 10.79471,-23.28244 13.91688,-34 6.92276,-23.76397 7.0088,-24.42254 3.30685,-25.31063 -94.56318,-22.68536 -122.38046,-28.44445 -160.42845,-33.21399 -21.36791,-2.67859 -53.652,-5.22756 -55.7949,-4.40525 -1.30152,0.49944 -1.62034,4.3537 -1.30657,15.79526 1.34461,49.03136 10.59768,108.46724 27.26523,175.13461 6.23068,24.92163 7.88705,30 9.78489,30 0.96768,0 7.3751,-1.46428 14.23872,-3.25394 z m -10.05053,-9.85799 c -1.15299,-1.86558 -12.32575,-42.26426 -17.94561,-64.88807 -10.76413,-43.33305 -15.8472,-78.28305 -18.08284,-124.33334 -0.65481,-13.48774 -0.62414,-13.66666 2.34213,-13.66666 1.65309,0 16.07795,1.51211 32.05524,3.36025 27.20115,3.14644 60.34752,8.91473 88.16091,15.34218 6.6,1.52521 13.5,3.11172 15.33333,3.52558 6.17416,1.39377 36.57722,9.77898 47.33333,13.05461 5.86667,1.78661 12.36513,3.65612 14.44102,4.15445 2.07589,0.49834 4.04786,1.61882 4.38215,2.48996 0.80614,2.10077 -6.38847,22.42301 -13.24281,37.4063 -28.19558,61.6343 -75.83772,102.49897 -141.39617,121.28144 -13.58872,3.89316 -12.49445,3.70725 -13.38068,2.2733 z m 16.99881,-8.17039 c 56.67408,-16.24545 103.74564,-56.04021 130.17473,-110.05102 8.09137,-16.53561 16.65457,-39.14616 15.32805,-40.47268 -1.03006,-1.03006 -26.7162,-8.23726 -57.3051,-16.07907 -37.44915,-9.60051 -67.87698,-15.53991 -95.99999,-18.73885 -19.77722,-2.24962 -34.47266,-4.13089 -37.85038,-4.84551 l -3.18372,-0.67358 0.92202,18.40485 c 1.38087,27.56416 5.73666,62.46385 10.78409,86.40484 4.4402,21.06074 12.32372,52.9977 15.96274,64.66667 1.02912,3.3 3.14152,10.37957 4.69422,15.73239 2.51561,8.67236 3.12003,9.63814 5.54937,8.86709 1.49946,-0.47591 6.41524,-1.92271 10.92397,-3.21513 z M 261.85664,258.89861 C 264.7484,254.21965 247.65793,132.11106 235.5057,70.625403 233.69845,61.481432 231.8171,51.249265 231.32491,47.887256 229.82255,37.624899 229.97371,37.68521 214.5006,41.174701 136.10634,58.854142 72.584033,114.01802 50.034431,184 44.873429,200.01701 38.677345,225.84281 39.7576,226.83471 c 2.8226,2.59173 81.95044,17.67354 127.93899,24.38524 47.09132,6.87265 92.37585,10.56555 94.16005,7.67866 z m -29.85665,-6.97916 c -48.98981,-3.4921 -82.90841,-8.59183 -141.333327,-21.24977 -37.845399,-8.19933 -39.999998,-8.87571 -39.999998,-12.55709 0,-3.86035 6.495534,-25.15017 11.208563,-36.73729 C 82.087448,131.68297 122.9205,89.146928 173.8952,64.683406 c 18.69264,-8.970879 46.60502,-17.776757 48.1947,-15.204603 0.78092,1.263556 13.87445,64.505117 17.36124,83.854527 8.49434,47.13804 16.00309,97.15273 16.81466,112 l 0.40086,7.33334 -4.66667,0.17289 c -2.56667,0.0951 -11.56667,-0.31896 -20,-0.92011 z m 19.97915,-7.58612 C 251.92691,235.15085 239.90223,159.25373 231.96365,118 c -2.96347,-15.4 -5.92344,-31.071805 -6.57771,-34.826233 -0.65427,-3.754429 -1.77895,-9.154429 -2.49928,-12 -0.72034,-2.845572 -1.70128,-8.023767 -2.17988,-11.5071 -0.61785,-4.496816 -1.47722,-6.333334 -2.96357,-6.333334 -2.83795,0 -24.40106,7.402217 -35.07655,12.041129 C 126.45545,89.800396 79.898898,139.46417 62.088591,194 c -4.214402,12.90466 -6.717469,23.1489 -5.864572,24.0018 1.510377,1.51038 87.688621,19.47872 108.442641,22.61052 19.74898,2.98014 62.76066,7.06031 76.33333,7.24113 l 11,0.14655 z m 70.68751,11.56808 c 57.0392,-4.98397 119.20533,-14.72326 168,-26.31983 l 10,-2.3766 -0.33434,-5.39636 c -0.49064,-7.9191 -10.04583,-36.24681 -17.44007,-51.70351 C 459.06024,120.28734 421.52172,82.021547 372.39341,57.465471 359.42451,50.983153 336.0978,42.473058 326.21761,40.619522 320.86977,39.616262 321.23424,39.148778 318.90425,50 c -1.83928,8.565918 -10.53658,47.598565 -12.25515,55 -6.00723,25.87142 -7.66531,34.40337 -11.85465,61 -4.9633,31.51027 -6.3393,42.26466 -8.10339,63.33333 -0.76753,9.16667 -1.71743,19.59017 -2.11088,23.16334 l -0.71537,6.49666 11.73426,-0.87606 c 6.45384,-0.48184 18.63425,-1.47897 27.06758,-2.21586 z m -31.48929,-14.23474 c 2.65214,-35.26403 16.81859,-117.78495 26.15122,-152.333337 0.69334,-2.566666 2.50821,-9.766666 4.03305,-16 C 326.55585,52.10003 326.59337,52 329.36487,52 c 4.53161,0 26.86183,7.925043 39.30178,13.948284 57.23388,27.711799 99.91026,79.868266 116.07875,141.864346 1.79002,6.86362 3.25458,12.9654 3.25458,13.55952 0,3.70945 -62.10374,16.61136 -117.99999,24.51422 -13.86644,1.9605 -70.41293,7.44696 -76.75245,7.44696 -2.88352,0 -2.92853,-0.25364 -2.07018,-11.66666 z m 40.15596,4.24025 c 23.51569,-2.0488 48.75003,-5.36871 71.33333,-9.38483 33.89119,-6.02706 40.60973,-7.31312 54.47308,-10.42715 27.1992,-6.10959 25.92576,-5.55091 24.9164,-10.93124 -1.78359,-9.50735 -8.78576,-30.18033 -14.27754,-42.15253 -11.55363,-25.18721 -23.98225,-42.92587 -43.68173,-62.3445 -24.45975,-24.111024 -53.68538,-41.87987 -86.58653,-52.643608 -8.14005,-2.663047 -8.69667,-2.313464 -10.07881,6.329987 -0.46777,2.925261 -2.99787,14.092522 -5.62244,24.816137 C 319.1845,99.8928 316.76916,110.16667 316.44164,112 c -0.32751,1.83333 -2.0172,9.93333 -3.75486,18 -6.59787,30.6289 -16.68679,98.33952 -16.68679,111.99138 v 7.01439 l 5.66667,-0.50393 c 3.11666,-0.27716 16.46666,-1.44487 29.66666,-2.59492 z" fill="#CBA85A" stroke="#CBA85A" stroke-width="8" stroke-linejoin="round"/>
</svg>